<mxfile host="app.diagrams.net" modified="2023-02-15T07:26:51.461Z" agent="5.0 (Macintosh; Intel Mac OS X 10_15_7) AppleWebKit/605.1.15 (KHTML, like Gecko) Version/16.3 Safari/605.1.15" etag="xTFUuS3rMezJx4CYsyHz" version="20.8.20" type="github">
  <diagram name="第 1 页" id="ZSmWvPYyhMm1NjeAWpzS">
    <mxGraphModel dx="924" dy="740" grid="1" gridSize="10" guides="1" tooltips="1" connect="1" arrows="1" fold="1" page="1" pageScale="1" pageWidth="827" pageHeight="1169" math="0" shadow="0">
      <root>
        <mxCell id="0" />
        <mxCell id="1" parent="0" />
        <mxCell id="niBAzzRXNpo4yKbwdz7n-4" style="edgeStyle=orthogonalEdgeStyle;rounded=0;orthogonalLoop=1;jettySize=auto;html=1;exitX=0.5;exitY=1;exitDx=0;exitDy=0;" edge="1" parent="1" source="ZLMnLhB53y7CrOd58POB-1">
          <mxGeometry relative="1" as="geometry">
            <mxPoint x="770" y="160" as="targetPoint" />
          </mxGeometry>
        </mxCell>
        <mxCell id="ZLMnLhB53y7CrOd58POB-1" value="&lt;font style=&quot;font-size: 18px;&quot;&gt;Accuracy&lt;/font&gt;" style="ellipse;whiteSpace=wrap;html=1;fillColor=#f8cecc;strokeColor=#b85450;" parent="1" vertex="1">
          <mxGeometry x="20" y="410" width="120" height="80" as="geometry" />
        </mxCell>
        <mxCell id="ZLMnLhB53y7CrOd58POB-2" value="&lt;font style=&quot;font-size: 18px;&quot;&gt;Tile Size&lt;/font&gt;" style="ellipse;whiteSpace=wrap;html=1;fillColor=#ffe6cc;strokeColor=#d79b00;" parent="1" vertex="1">
          <mxGeometry x="240" y="190" width="120" height="80" as="geometry" />
        </mxCell>
        <mxCell id="niBAzzRXNpo4yKbwdz7n-3" style="edgeStyle=none;rounded=0;orthogonalLoop=1;jettySize=auto;html=1;entryX=1;entryY=0;entryDx=0;entryDy=0;" edge="1" parent="1" source="ZLMnLhB53y7CrOd58POB-3" target="ZLMnLhB53y7CrOd58POB-1">
          <mxGeometry relative="1" as="geometry" />
        </mxCell>
        <mxCell id="ZLMnLhB53y7CrOd58POB-3" value="&lt;font style=&quot;font-size: 18px;&quot;&gt;Prune&lt;/font&gt;" style="rounded=0;whiteSpace=wrap;html=1;fillColor=#dae8fc;strokeColor=#6c8ebf;" parent="1" vertex="1">
          <mxGeometry x="140" y="310" width="120" height="50" as="geometry" />
        </mxCell>
        <mxCell id="ZLMnLhB53y7CrOd58POB-5" value="" style="endArrow=classic;html=1;rounded=0;exitX=0;exitY=1;exitDx=0;exitDy=0;entryX=0.5;entryY=0;entryDx=0;entryDy=0;" parent="1" source="ZLMnLhB53y7CrOd58POB-2" target="ZLMnLhB53y7CrOd58POB-3" edge="1">
          <mxGeometry width="50" height="50" relative="1" as="geometry">
            <mxPoint x="390" y="500" as="sourcePoint" />
            <mxPoint x="440" y="450" as="targetPoint" />
          </mxGeometry>
        </mxCell>
        <mxCell id="ZLMnLhB53y7CrOd58POB-6" value="" style="endArrow=classic;html=1;rounded=0;fontSize=18;exitX=0.5;exitY=1;exitDx=0;exitDy=0;entryX=0.5;entryY=0;entryDx=0;entryDy=0;" parent="1" source="ZLMnLhB53y7CrOd58POB-3" target="ZLMnLhB53y7CrOd58POB-12" edge="1">
          <mxGeometry width="50" height="50" relative="1" as="geometry">
            <mxPoint x="230" y="470" as="sourcePoint" />
            <mxPoint x="200" y="410" as="targetPoint" />
          </mxGeometry>
        </mxCell>
        <mxCell id="ZLMnLhB53y7CrOd58POB-18" style="edgeStyle=none;rounded=0;orthogonalLoop=1;jettySize=auto;html=1;entryX=0;entryY=0.5;entryDx=0;entryDy=0;fontSize=18;" parent="1" source="ZLMnLhB53y7CrOd58POB-12" target="ZLMnLhB53y7CrOd58POB-15" edge="1">
          <mxGeometry relative="1" as="geometry" />
        </mxCell>
        <mxCell id="ZLMnLhB53y7CrOd58POB-12" value="&lt;font size=&quot;4&quot;&gt;Mask&lt;/font&gt;" style="ellipse;whiteSpace=wrap;html=1;fillColor=#fff2cc;strokeColor=#d6b656;" parent="1" vertex="1">
          <mxGeometry x="200" y="410" width="120" height="80" as="geometry" />
        </mxCell>
        <mxCell id="ZLMnLhB53y7CrOd58POB-21" style="edgeStyle=orthogonalEdgeStyle;rounded=0;orthogonalLoop=1;jettySize=auto;html=1;entryX=0.5;entryY=1;entryDx=0;entryDy=0;fontSize=18;exitX=1;exitY=0.5;exitDx=0;exitDy=0;" parent="1" source="ZLMnLhB53y7CrOd58POB-15" target="ZLMnLhB53y7CrOd58POB-20" edge="1">
          <mxGeometry relative="1" as="geometry" />
        </mxCell>
        <mxCell id="ZLMnLhB53y7CrOd58POB-15" value="schedule a kernel" style="rounded=0;whiteSpace=wrap;html=1;fontSize=18;fillColor=#dae8fc;strokeColor=#6c8ebf;" parent="1" vertex="1">
          <mxGeometry x="390" y="425" width="180" height="50" as="geometry" />
        </mxCell>
        <mxCell id="ZLMnLhB53y7CrOd58POB-17" style="rounded=0;orthogonalLoop=1;jettySize=auto;html=1;fontSize=18;exitX=1;exitY=0.5;exitDx=0;exitDy=0;entryX=0.5;entryY=0;entryDx=0;entryDy=0;edgeStyle=orthogonalEdgeStyle;" parent="1" source="ZLMnLhB53y7CrOd58POB-2" target="ZLMnLhB53y7CrOd58POB-15" edge="1">
          <mxGeometry relative="1" as="geometry">
            <mxPoint x="390" y="230" as="sourcePoint" />
            <mxPoint x="490" y="410" as="targetPoint" />
          </mxGeometry>
        </mxCell>
        <mxCell id="ZLMnLhB53y7CrOd58POB-23" style="edgeStyle=none;rounded=0;orthogonalLoop=1;jettySize=auto;html=1;fontSize=18;entryX=0.5;entryY=1;entryDx=0;entryDy=0;" parent="1" source="ZLMnLhB53y7CrOd58POB-20" target="ZLMnLhB53y7CrOd58POB-22" edge="1">
          <mxGeometry relative="1" as="geometry">
            <mxPoint x="699" y="210" as="targetPoint" />
          </mxGeometry>
        </mxCell>
        <mxCell id="ZLMnLhB53y7CrOd58POB-20" value="Latency" style="ellipse;whiteSpace=wrap;html=1;fontSize=18;fillColor=#f8cecc;strokeColor=#b85450;" parent="1" vertex="1">
          <mxGeometry x="639.5" y="345" width="120" height="80" as="geometry" />
        </mxCell>
        <mxCell id="ZLMnLhB53y7CrOd58POB-24" style="edgeStyle=orthogonalEdgeStyle;rounded=0;orthogonalLoop=1;jettySize=auto;html=1;entryX=0.5;entryY=0;entryDx=0;entryDy=0;fontSize=18;" parent="1" source="ZLMnLhB53y7CrOd58POB-22" target="ZLMnLhB53y7CrOd58POB-2" edge="1">
          <mxGeometry relative="1" as="geometry" />
        </mxCell>
        <mxCell id="ZLMnLhB53y7CrOd58POB-22" value="Cost Model" style="rounded=0;whiteSpace=wrap;html=1;fontSize=18;fillColor=#dae8fc;strokeColor=#6c8ebf;" parent="1" vertex="1">
          <mxGeometry x="609" y="110" width="181" height="50" as="geometry" />
        </mxCell>
        <mxCell id="ZLMnLhB53y7CrOd58POB-29" value="" style="endArrow=classic;html=1;rounded=0;fontSize=18;exitX=0;exitY=0.5;exitDx=0;exitDy=0;edgeStyle=orthogonalEdgeStyle;entryX=0.5;entryY=0;entryDx=0;entryDy=0;" parent="1" source="ZLMnLhB53y7CrOd58POB-22" target="niBAzzRXNpo4yKbwdz7n-1" edge="1">
          <mxGeometry width="50" height="50" relative="1" as="geometry">
            <mxPoint x="310" y="140" as="sourcePoint" />
            <mxPoint x="70" y="170" as="targetPoint" />
          </mxGeometry>
        </mxCell>
        <mxCell id="ZLMnLhB53y7CrOd58POB-30" value="Update" style="text;html=1;strokeColor=none;fillColor=none;align=center;verticalAlign=middle;whiteSpace=wrap;rounded=0;fontSize=18;" parent="1" vertex="1">
          <mxGeometry x="320" y="100" width="130" height="30" as="geometry" />
        </mxCell>
        <mxCell id="niBAzzRXNpo4yKbwdz7n-2" style="rounded=0;orthogonalLoop=1;jettySize=auto;html=1;exitX=1;exitY=1;exitDx=0;exitDy=0;entryX=0.5;entryY=0;entryDx=0;entryDy=0;" edge="1" parent="1" source="niBAzzRXNpo4yKbwdz7n-1" target="ZLMnLhB53y7CrOd58POB-3">
          <mxGeometry relative="1" as="geometry" />
        </mxCell>
        <mxCell id="niBAzzRXNpo4yKbwdz7n-1" value="&lt;font size=&quot;4&quot;&gt;Sparsity&lt;/font&gt;" style="ellipse;whiteSpace=wrap;html=1;fillColor=#ffe6cc;strokeColor=#d79b00;" vertex="1" parent="1">
          <mxGeometry x="40" y="190" width="120" height="80" as="geometry" />
        </mxCell>
      </root>
    </mxGraphModel>
  </diagram>
</mxfile>
